Coordinates
version=1
nRows=24
nColumns=33
inDegrees=yes

Units are S.I. units (second, meters, Newtons, ...)
Angles are in degrees.

endheader
time	ground_thorax_rot_x	ground_thorax_rot_y	ground_thorax_rot_z	ground_thorax_tx	ground_thorax_ty	ground_thorax_tz	clav_prot_r	clav_elev_r	scapula_abduction_r	scapula_elevation_r	scapula_upward_rot_r	scapula_winging_r	shoulder_elv_r	plane_of_elev_r	axial_rot_r	elbow_flexion_r	pro_sup_r	wrist_flex_r	wrist_dev_r	clav_prot_l	clav_elev_l	scapula_abduction_l	scapula_elevation_l	scapula_upward_rot_l	scapula_winging_l	shoulder_elv_l	plane_of_elev_l	axial_rot_l	elbow_flexion_l	pro_sup_l	wrist_flex_l	wrist_dev_l	
1.3700	1.549284	6.213124	-2.811150	-0.157852	1.004769	0.009652	-19.276780	-12.749476	-25.069660	-8.203122	7.614195	4.444313	50.960873	-33.581975	36.352428	77.767927	5.253805	-0.871958	17.573129	0.037802	-5.044994	-2.616057	-3.454724	-5.305003	-0.209601	47.328760	-35.796472	-12.991725	84.971378	4.561731	11.790418	3.447632	
1.3800	1.550033	6.274887	-2.762133	-0.157985	1.004694	0.009686	-19.089352	-12.988136	-24.821152	-8.353889	7.433926	4.613126	50.340410	-32.501903	35.539972	76.103622	4.710871	-1.773306	18.419822	0.140880	-5.295350	-2.682352	-3.401243	-5.732374	-0.307542	47.664987	-34.421495	-12.660437	83.992130	4.212095	12.697523	4.479288	
1.3900	1.554433	6.335961	-2.721873	-0.158086	1.004633	0.009716	-18.895598	-13.249884	-24.555751	-8.528379	7.259599	4.793552	49.753010	-31.415532	34.785863	74.322093	4.191042	-2.609692	19.218292	0.251876	-5.564329	-2.765714	-3.331699	-6.161732	-0.405329	47.998857	-33.027730	-12.329653	82.902922	3.910925	13.576388	5.443542	
1.4000	1.558653	6.398789	-2.684626	-0.158164	1.004568	0.009743	-18.694380	-13.519591	-24.274313	-8.712054	7.090368	4.977382	49.185871	-30.314191	34.084978	72.416370	3.676322	-3.383804	19.987957	0.375272	-5.836512	-2.872129	-3.260229	-6.592721	-0.496828	48.326943	-31.606781	-12.000774	81.698705	3.650081	14.454306	6.347936	
1.4100	1.565427	6.463074	-2.655534	-0.158213	1.004516	0.009764	-18.485436	-13.807933	-23.972488	-8.916703	6.931026	5.169978	48.648022	-29.216105	33.445571	70.394063	3.183158	-4.084779	20.705010	0.511601	-6.120677	-3.010179	-3.170831	-7.006180	-0.579462	48.633606	-30.181893	-11.672920	80.377404	3.435084	15.309673	7.178214	
1.4200	1.571125	6.532272	-2.626737	-0.158243	1.004453	0.009780	-18.270209	-14.094417	-23.655200	-9.122994	6.781606	5.359132	48.123904	-28.103945	32.865527	68.241809	2.683570	-4.703500	21.389645	0.664715	-6.398828	-3.180303	-3.085641	-7.415194	-0.649231	48.926444	-28.730752	-11.349682	78.931669	3.258073	16.180838	7.940982	
1.4300	1.579018	6.606236	-2.602535	-0.158247	1.004402	0.009790	-18.046546	-14.391843	-23.316304	-9.343886	6.644453	5.552333	47.624856	-27.001450	32.349531	65.975888	2.200578	-5.243013	22.016428	0.834131	-6.685167	-3.388505	-2.984179	-7.802135	-0.706428	49.196087	-27.282408	-11.036355	77.366197	3.123806	17.038926	8.632897	
1.4400	1.581073	6.688787	-2.568437	-0.158250	1.004316	0.009799	-17.815015	-14.661581	-22.963736	-9.541622	6.516009	5.727784	47.117347	-25.870001	31.883413	63.574247	1.681428	-5.703830	22.633035	1.023995	-6.949038	-3.625284	-2.910147	-8.204277	-0.749454	49.471574	-25.787583	-10.740429	75.677170	3.012009	17.954352	9.285050	
1.4500	1.587295	6.777573	-2.531428	-0.158230	1.004257	0.009803	-17.572619	-14.941963	-22.583594	-9.754749	6.403354	5.906191	46.642159	-24.771066	31.494296	61.080187	1.195708	-6.077719	23.167872	1.230197	-7.229047	-3.900536	-2.812033	-8.583189	-0.781648	49.730759	-24.315807	-10.478347	73.872785	2.948199	18.837158	9.865748	
1.4600	1.586880	6.876402	-2.491389	-0.158204	1.004166	0.009803	-17.326283	-15.192711	-22.192807	-9.945219	6.305880	6.064085	46.150165	-23.645795	31.151209	58.461597	0.686350	-6.347850	23.670832	1.453800	-7.485506	-4.201505	-2.738812	-8.968561	-0.798797	49.993672	-22.797491	-10.241815	71.943427	2.916246	19.757013	10.388613	
1.4700	1.593089	6.981598	-2.466224	-0.158139	1.004119	0.009795	-17.075629	-15.461683	-21.781193	-10.160561	6.229964	6.228302	45.687405	-22.558897	30.868829	55.778539	0.239883	-6.517515	24.066025	1.687675	-7.765014	-4.536819	-2.627053	-9.311195	-0.806135	50.225420	-21.306105	-10.031477	69.895571	2.946516	20.607133	10.822434	
1.4800	1.593534	7.099251	-2.446440	-0.158062	1.004040	0.009778	-16.829756	-15.694837	-21.371739	-10.349182	6.173528	6.367487	45.195257	-21.440342	30.612389	52.996708	-0.202985	-6.564417	24.413280	1.934866	-8.014117	-4.892785	-2.542534	-9.650762	-0.796483	50.446671	-19.755994	-9.843622	67.717845	3.023812	21.475713	11.178363	
1.4900	1.602999	7.224913	-2.426381	-0.157953	1.004014	0.009748	-16.580722	-15.939349	-20.946327	-10.554866	6.134845	6.509741	44.740596	-20.382261	30.411212	50.210193	-0.536632	-6.526372	24.644805	2.192170	-8.284479	-5.283330	-2.418443	-9.941289	-0.775668	50.627165	-18.249832	-9.707517	65.427912	3.175718	22.250451	11.445164	
1.5000	1.608597	7.363142	-2.410550	-0.157828	1.003965	0.009702	-16.342570	-16.146486	-20.534746	-10.731601	6.112917	6.626537	44.261299	-19.303456	30.218230	47.381947	-0.806793	-6.362132	24.806540	2.458737	-8.521222	-5.690153	-2.319618	-10.217194	-0.736744	50.781893	-16.689637	-9.606344	63.009505	3.389290	23.009643	11.616655	
1.5100	1.625668	7.508147	-2.405445	-0.157668	1.003969	0.009642	-16.108466	-16.363635	-20.122271	-10.922690	6.103601	6.747097	43.825262	-18.283756	30.048284	44.615194	-0.914171	-6.124318	24.845198	2.729836	-8.776188	-6.123278	-2.179685	-10.434286	-0.687593	50.885355	-15.164987	-9.560053	60.479640	3.686339	23.648531	11.691392	
1.5200	1.642422	7.661368	-2.411328	-0.157489	1.003968	0.009564	-15.886595	-16.555646	-19.728355	-11.093933	6.103653	6.851017	43.391860	-17.268836	29.868600	41.896352	-0.885862	-5.788736	24.794454	3.005529	-9.006451	-6.572823	-2.045618	-10.610360	-0.620341	50.947120	-13.615057	-9.569563	57.834255	4.057822	24.215531	11.659852	
1.5300	1.663245	7.816765	-2.408411	-0.157292	1.004011	0.009472	-15.670352	-16.748135	-19.344854	-11.265542	6.102124	6.955379	43.008059	-16.326911	29.691838	39.314857	-0.634280	-5.404249	24.625037	3.283579	-9.235777	-7.047083	-1.881980	-10.713210	-0.536129	50.942963	-12.117389	-9.668368	55.089351	4.522902	24.627105	11.512586	
1.5400	1.675159	7.968074	-2.400161	-0.157091	1.004061	0.009368	-15.465449	-16.920220	-18.985619	-11.416741	6.095502	7.048276	42.636810	-15.413628	29.487667	36.855481	-0.210256	-4.971056	24.380514	3.562714	-9.436629	-7.534924	-1.722299	-10.762162	-0.432581	50.888283	-10.635586	-9.838036	52.263716	5.067519	24.928546	11.260013	
1.5500	1.680262	8.113579	-2.386033	-0.156882	1.004127	0.009255	-15.274839	-17.080614	-18.658180	-11.553604	6.077155	7.136447	42.297452	-14.550980	29.238995	34.577693	0.454449	-4.514371	24.038437	3.839309	-9.611661	-8.035364	-1.557934	-10.742952	-0.308971	50.767327	-9.188252	-10.089275	49.365629	5.723986	25.058109	10.871130	
1.5600	1.677944	8.245287	-2.361175	-0.156671	1.004214	0.009139	-15.097368	-17.227078	-18.360723	-11.674153	6.047413	7.218762	41.987065	-13.738769	28.938043	32.488021	1.299465	-4.066543	23.638204	4.114760	-9.767088	-8.545490	-1.390935	-10.673583	-0.170630	50.601268	-7.793263	-10.405787	46.442393	6.481647	25.046426	10.381080	
1.5700	1.664351	8.369100	-2.326526	-0.156452	1.004299	0.009021	-14.942693	-17.348314	-18.111823	-11.767094	6.003849	7.289149	41.693249	-12.968728	28.545520	30.608451	2.387173	-3.613241	23.163599	4.385616	-9.878435	-9.059170	-1.243079	-10.552791	-0.010736	50.375334	-6.425171	-10.783934	43.497382	7.398147	24.843247	9.723386	
1.5800	1.649008	8.478121	-2.296245	-0.156209	1.004417	0.008910	-14.809359	-17.459114	-17.902951	-11.849502	5.954901	7.355772	41.426396	-12.257165	28.047911	28.952278	3.638402	-3.192666	22.661710	4.650236	-9.981593	-9.571673	-1.087309	-10.394442	0.155330	50.113941	-5.118830	-11.155874	40.590824	8.454141	24.495717	8.946113	
1.5900	1.631602	8.577838	-2.286862	-0.155936	1.004537	0.008806	-14.703774	-17.547161	-17.741814	-11.912474	5.908399	7.409944	41.166767	-11.580811	27.420354	27.512480	5.056425	-2.776491	22.123508	4.905515	-10.055156	-10.075089	-0.945646	-10.204598	0.331641	49.814949	-3.834997	-11.494136	37.740678	9.685456	23.996080	8.015213	
1.6000	1.621461	8.645535	-2.293752	-0.155637	1.004708	0.008720	-14.604020	-17.639926	-17.583282	-11.984581	5.874225	7.465375	40.943244	-10.985848	26.715060	26.294958	6.516498	-2.421848	21.599582	5.151780	-10.143029	-10.572399	-0.778559	-9.984828	0.503963	49.509928	-2.651414	-11.632772	35.010946	10.845015	23.592770	6.998602	
